<svg width="700.8" height="144.607" viewBox="0 0 700.8 144.607" xmlns="http://www.w3.org/2000/svg"><g id="svgGroup" stroke-linecap="round" fill-rule="evenodd" font-size="9pt" stroke="#000" stroke-width="0" fill="#ff0000" style="stroke:#000;stroke-width:0;fill:#ff0000"><path d="M 106.4 143.203 L 98.8 120.203 L 48.8 120.203 L 41.2 143.203 L 0 143.203 L 51.4 2.203 L 96.6 2.203 L 147.8 143.203 L 106.4 143.203 Z M 58.8 90.203 L 89 90.203 L 73.8 44.603 L 58.8 90.203 Z" id="0" vector-effect="non-scaling-stroke"/><path d="M 230.4 143.203 L 160.6 143.203 L 160.6 2.203 L 228.2 2.203 A 78.788 78.788 0 0 1 241.374 3.237 Q 248.676 4.477 254.537 7.205 A 38.954 38.954 0 0 1 262.1 11.803 A 31.245 31.245 0 0 1 274.183 34.319 A 45.139 45.139 0 0 1 274.4 38.803 A 39.016 39.016 0 0 1 273.243 48.536 A 29.461 29.461 0 0 1 267.9 59.503 A 32.075 32.075 0 0 1 251.603 70.51 A 39.485 39.485 0 0 1 250.6 70.803 A 35.257 35.257 0 0 1 262.637 75.87 A 32.509 32.509 0 0 1 270.3 83.103 Q 277.6 92.603 277.6 104.803 A 41.923 41.923 0 0 1 275.856 117.206 A 32.457 32.457 0 0 1 265.2 133.003 A 41.254 41.254 0 0 1 250.841 140.491 Q 241.95 143.203 230.4 143.203 Z M 222.4 86.003 L 199.8 86.003 L 199.8 111.603 L 222.6 111.603 Q 235.67 111.603 237.198 101.933 A 17.5 17.5 0 0 0 237.4 99.203 Q 237.4 92.803 233.5 89.403 Q 230.214 86.539 224.586 86.088 A 27.374 27.374 0 0 0 222.4 86.003 Z M 199.8 33.403 L 199.8 58.203 L 219.6 58.203 A 26.224 26.224 0 0 0 225.094 57.68 Q 233.115 55.954 234.223 48.528 A 17.125 17.125 0 0 0 234.4 46.003 A 15.22 15.22 0 0 0 233.532 40.639 Q 231.014 33.932 221.194 33.442 A 31.986 31.986 0 0 0 219.6 33.403 L 199.8 33.403 Z" id="1" vector-effect="non-scaling-stroke"/><path d="M 362.4 144.603 Q 342.6 144.603 326 135.303 Q 309.4 126.003 299.7 109.503 A 70.858 70.858 0 0 1 290.154 77.376 A 85.895 85.895 0 0 1 290 72.203 A 76.373 76.373 0 0 1 293.602 48.45 A 68.362 68.362 0 0 1 299.7 34.903 Q 309.4 18.403 326 9.203 Q 342.6 0.003 362.4 0.003 A 75.252 75.252 0 0 1 390.431 5.178 A 71.762 71.762 0 0 1 398.9 9.203 Q 415.4 18.403 425 34.903 A 71.255 71.255 0 0 1 434.41 66.438 A 86.42 86.42 0 0 1 434.6 72.203 A 77.341 77.341 0 0 1 431.216 95.387 A 68.734 68.734 0 0 1 425 109.503 Q 415.4 126.003 398.8 135.303 Q 382.2 144.603 362.4 144.603 Z M 362.4 108.203 A 37.003 37.003 0 0 0 372.764 106.825 A 27.902 27.902 0 0 0 386.1 98.403 A 33.306 33.306 0 0 0 393.525 83.792 Q 394.72 78.813 394.795 72.984 A 60.943 60.943 0 0 0 394.8 72.203 A 52.539 52.539 0 0 0 393.772 61.492 Q 391.809 52.069 386.1 45.703 A 28.651 28.651 0 0 0 368.235 36.404 A 41.027 41.027 0 0 0 362.4 36.003 A 38.328 38.328 0 0 0 352.327 37.256 A 27.606 27.606 0 0 0 338.6 45.703 Q 330.693 54.622 330.056 69.542 A 62.386 62.386 0 0 0 330 72.203 Q 330 86.196 336.111 95.287 A 30.457 30.457 0 0 0 338.6 98.503 A 28.196 28.196 0 0 0 355.584 107.662 A 41.109 41.109 0 0 0 362.4 108.203 Z" id="2" vector-effect="non-scaling-stroke"/><path d="M 451.6 2.203 L 490.6 2.203 L 490.6 84.003 A 39.358 39.358 0 0 0 491.157 90.849 Q 492.318 97.413 495.9 101.603 A 16.751 16.751 0 0 0 504.116 106.775 Q 506.894 107.594 510.251 107.761 A 35.331 35.331 0 0 0 512 107.803 Q 522.8 107.803 528.3 101.503 A 20.947 20.947 0 0 0 532.592 93.427 Q 533.8 89.253 533.8 84.003 L 533.8 2.203 L 573 2.203 L 573 84.003 A 76.574 76.574 0 0 1 571.458 99.755 A 55.857 55.857 0 0 1 564.8 117.103 Q 556.6 130.803 542.5 137.703 Q 528.4 144.603 511.2 144.603 A 73.473 73.473 0 0 1 493.969 142.656 A 60.656 60.656 0 0 1 480.5 137.703 Q 467 130.803 459.3 117.203 Q 451.6 103.603 451.6 84.003 L 451.6 2.203 Z" id="3" vector-effect="non-scaling-stroke"/><path d="M 586.8 2.203 L 700.8 2.203 L 700.8 33.403 L 663.2 33.403 L 663.2 143.203 L 624 143.203 L 624 33.403 L 586.8 33.403 L 586.8 2.203 Z" id="4" vector-effect="non-scaling-stroke"/></g></svg>