<svg xmlns="http://www.w3.org/2000/svg" id="svg-element" viewBox="0 0 700.8 144.607" fill="inherit" preserveAspectRatio="xMidYMin meet"><g xmlns="http://www.w3.org/2000/svg" id="svgGroup" stroke-linecap="round" fill-rule="evenodd" font-size="9pt" stroke="#000" stroke-width="0" fill="#ff0000" style="stroke:#000;stroke-width:0;fill:#ff0000"><path d="M106.41 143.59Q102.8 137.82 99.18 132.24 74.13 132.77 49.06 133.35 45.14 138.43 41.2 143.63 20.6 143.64 0 143.71 26.12 115.42 53.46 81.62 76.29 78.49 99.12 75.38 123.48 108.01 147.81 143.56 127.11 143.57 106.41 143.59 106.41 143.59 106.41 143.59M59.41 120.13Q74.61 119.26 89.8 118.44 82.49 108.51 75.21 98.8 67.26 109.73 59.41 120.13 59.41 120.13 59.41 120.13" id="0" vector-effect="non-scaling-stroke"/><path d="M230.42 143.51Q195.51 143.53 160.61 143.55 162.09 105.39 163.76 66.56 197.89 61.91 232.05 57.27C236.5 56.67 240.93 56.44 245.32 56.49Q252.65 56.62 258.48 57.84C261.16 58.4 263.67 59.17 265.98 60.15 272.92 63.07 277.08 68.03 277.44 73.76 277.53 74.72 277.57 75.69 277.51 76.66 277.43 78.78 276.94 80.93 276.04 83.04 274.91 85.68 272.96 88.21 270.33 90.44 265.99 94.06 260.15 96.83 253.61 98.38 253.27 98.46 252.93 98.54 252.6 98.62 256.88 98.95 260.93 99.81 264.54 101.14 267.42 102.25 269.95 103.68 272.02 105.36Q279.07 111.12 278.71 118.93C278.62 121.61 277.91 124.3 276.59 126.89 274.53 130.88 270.66 134.43 265.49 137.05 261.15 139.23 256.2 140.85 250.93 141.82Q241.97 143.5 230.42 143.51 230.42 143.51 230.42 143.51M223.86 109.4Q212.51 109.95 201.17 110.51 200.86 117.88 200.55 125.25 211.98 124.94 223.4 124.64 236.5 124.31 238.28 118.39C238.44 117.83 238.54 117.28 238.56 116.72Q238.73 112.83 234.91 110.93 231.68 109.34 226.05 109.34C225.31 109.34 224.58 109.36 223.85 109.4Q223.86 109.4 223.86 109.4M202.51 79.82Q202.18 87.15 201.86 94.41 211.82 93.65 221.78 92.91C223.63 92.78 225.49 92.54 227.32 92.19Q235.44 90.55 236.76 85.87C236.91 85.35 236.99 84.82 237.02 84.3 237.1 83.16 236.86 82.05 236.29 81.03Q233.95 77.07 224.07 77.69C223.53 77.72 223 77.77 222.46 77.82Q212.49 78.81 202.51 79.82 202.51 79.82 202.51 79.82" id="1" vector-effect="non-scaling-stroke"/><path d="M362.41 143.58Q342.61 143.59 326.25 138.13 309.91 132.07 300.71 121.38C295.29 115.14 292.35 108.08 292.13 100.74 292.08 99.63 292.08 98.5 292.13 97.38 292.34 92.13 293.82 86.81 296.53 81.62 298.23 78.4 300.45 75.26 303.12 72.24Q313.48 60.5 330.57 52.9 347.68 45.13 367.68 43.31C377.36 42.48 386.91 42.75 395.78 44.43 398.66 45 401.46 45.71 404.15 46.57Q420.38 51.81 429.26 63.07C434.37 69.74 437.09 77.51 437.23 85.73 437.27 87.16 437.26 88.59 437.17 90.03 436.9 95.9 435.45 101.82 432.86 107.54 431.15 111.28 428.89 114.89 426.14 118.28Q415.97 130.71 399.07 137.68 382.21 143.57 362.41 143.58 362.41 143.58 362.41 143.58M363.55 118.93C367.05 118.87 370.56 118.45 373.97 117.69 379.19 116.51 383.92 114.3 387.62 111.31 391.43 108.18 394.17 104.48 395.6 100.53Q396.99 96.88 397.29 92.68C397.3 92.49 397.32 92.3 397.33 92.12 397.5 89.52 397.3 86.96 396.73 84.47Q395.15 77.82 389.69 73.65C385.24 70.3 378.99 68.4 372.09 68.31 370.16 68.26 368.2 68.3 366.24 68.45 362.82 68.67 359.39 69.21 356.04 70.04 350.64 71.38 345.72 73.73 341.91 76.8Q333.63 83.39 332.46 93.55C332.39 94.15 332.33 94.76 332.31 95.36Q331.83 104.84 337.65 110.79C338.36 111.54 339.16 112.24 340.04 112.91 344.28 116.16 350.2 118.24 356.74 118.73 358.98 118.93 361.26 119 363.55 118.93Q363.55 118.93 363.55 118.93" id="2" vector-effect="non-scaling-stroke"/><path d="M457.68 36.76Q477.21 34.75 496.19 31.98 494.2 63.74 492.52 96.13C492.41 97.96 492.52 99.78 492.82 101.57Q493.74 106.77 497.18 110C499.25 111.94 502.04 113.29 505.19 113.9Q507.94 114.48 511.28 114.51C511.86 114.51 512.44 114.51 513.02 114.49Q523.77 114.15 529.43 108.72C531.5 106.68 533.04 104.31 533.94 101.78Q535.25 98.21 535.4 93.79 536.73 59.52 538.23 25.82 557.31 23.03 576.38 20.23 575.24 55.54 574.27 91.58C574.18 96.25 573.55 100.94 572.38 105.54 571.03 110.95 568.66 116.15 565.38 120.89Q556.9 132.8 542.65 138.73 528.41 143.51 511.21 143.51C505.4 143.49 499.61 143.98 493.99 142.92 489.36 142.05 484.88 140.74 480.68 139.04Q467.4 133.75 460.14 123.33 452.93 113.07 453.67 98.08 455.49 67.1 457.68 36.76 457.68 36.76 457.68 36.76" id="3" vector-effect="non-scaling-stroke"/><path d="M589.8 18.26Q645.27 10.11 699.38 2.48 699.24 17.88 699.23 33.47 682.27 34.95 663.82 36.9 663.56 90.56 663.2 143.26 643.61 143.27 624.01 143.28 624.72 92.69 625.43 41.3 607.22 43.41 589 45.52 589.38 31.79 589.8 18.26 589.8 18.26 589.8 18.26" id="4" vector-effect="non-scaling-stroke"/></g></svg>