<svg width="996.402" height="144.607" viewBox="0 0 996.402 144.607" xmlns="http://www.w3.org/2000/svg"><g id="svgGroup" stroke-linecap="round" fill-rule="evenodd" font-size="9pt" stroke="#000000" stroke-width="0" fill="#ff0000" style="stroke:#000000;stroke-width:0;fill:#ff0000"><path d="M 137.802 53.203 L 95.602 53.203 A 31.227 31.227 0 0 0 90.912 45.964 A 26.198 26.198 0 0 0 85.102 41.003 A 27.574 27.574 0 0 0 72.959 36.964 A 34.492 34.492 0 0 0 69.602 36.803 A 30.783 30.783 0 0 0 59.459 38.404 A 25.934 25.934 0 0 0 47.902 46.503 A 33.364 33.364 0 0 0 41.245 59.885 Q 39.982 64.855 39.824 70.712 A 62.781 62.781 0 0 0 39.802 72.403 A 53.876 53.876 0 0 0 40.803 83.106 Q 42.13 89.652 45.217 94.742 A 30.659 30.659 0 0 0 47.902 98.503 A 26.344 26.344 0 0 0 67.1 108.118 A 36.079 36.079 0 0 0 69.602 108.203 A 31.274 31.274 0 0 0 78.359 107.018 A 26.589 26.589 0 0 0 85.102 104.003 A 27.117 27.117 0 0 0 93.8 95.121 A 34.171 34.171 0 0 0 95.602 91.803 L 137.802 91.803 Q 132.602 116.003 114.602 130.103 A 65.65 65.65 0 0 1 83.256 143.266 A 87.953 87.953 0 0 1 70.202 144.203 A 80.839 80.839 0 0 1 49.599 141.673 A 67.077 67.077 0 0 1 33.402 135.103 Q 17.402 126.003 8.702 109.703 A 73.721 73.721 0 0 1 0.69 83.844 A 92.675 92.675 0 0 1 0.002 72.403 A 84.969 84.969 0 0 1 2.604 50.999 A 71.146 71.146 0 0 1 8.702 35.303 Q 17.402 19.003 33.402 9.903 A 69.637 69.637 0 0 1 60.102 1.372 A 87.565 87.565 0 0 1 70.202 0.803 A 81.803 81.803 0 0 1 91.694 3.502 A 63.866 63.866 0 0 1 114.602 14.903 A 62.943 62.943 0 0 1 136.714 48.755 A 80.458 80.458 0 0 1 137.802 53.203 Z" id="0"/><path d="M 224.002 144.603 Q 204.202 144.603 187.602 135.303 Q 171.002 126.003 161.302 109.503 A 70.858 70.858 0 0 1 151.756 77.376 A 85.895 85.895 0 0 1 151.602 72.203 A 76.373 76.373 0 0 1 155.204 48.45 A 68.362 68.362 0 0 1 161.302 34.903 Q 171.002 18.403 187.602 9.203 Q 204.202 0.003 224.002 0.003 A 75.252 75.252 0 0 1 252.033 5.178 A 71.762 71.762 0 0 1 260.502 9.203 Q 277.002 18.403 286.602 34.903 A 71.255 71.255 0 0 1 296.012 66.438 A 86.42 86.42 0 0 1 296.202 72.203 A 77.341 77.341 0 0 1 292.817 95.387 A 68.734 68.734 0 0 1 286.602 109.503 Q 277.002 126.003 260.402 135.303 Q 243.802 144.603 224.002 144.603 Z M 224.002 108.203 A 37.003 37.003 0 0 0 234.366 106.825 A 27.902 27.902 0 0 0 247.702 98.403 A 33.306 33.306 0 0 0 255.127 83.792 Q 256.322 78.813 256.397 72.984 A 60.943 60.943 0 0 0 256.402 72.203 A 52.539 52.539 0 0 0 255.374 61.492 Q 253.411 52.069 247.702 45.703 A 28.651 28.651 0 0 0 229.837 36.404 A 41.027 41.027 0 0 0 224.002 36.003 A 38.328 38.328 0 0 0 213.929 37.256 A 27.606 27.606 0 0 0 200.202 45.703 Q 192.295 54.622 191.657 69.542 A 62.386 62.386 0 0 0 191.602 72.203 Q 191.602 86.196 197.713 95.287 A 30.457 30.457 0 0 0 200.202 98.503 A 28.196 28.196 0 0 0 217.186 107.662 A 41.109 41.109 0 0 0 224.002 108.203 Z" id="1"/><path d="M 444.402 2.203 L 444.402 143.203 L 405.202 143.203 L 353.002 64.403 L 353.002 143.203 L 313.802 143.203 L 313.802 2.203 L 353.002 2.203 L 405.202 82.003 L 405.202 2.203 L 444.402 2.203 Z" id="2"/><path d="M 459.002 2.203 L 573.002 2.203 L 573.002 33.403 L 535.402 33.403 L 535.402 143.203 L 496.202 143.203 L 496.202 33.403 L 459.002 33.403 L 459.002 2.203 Z" id="3"/><path d="M 684.402 143.203 L 676.802 120.203 L 626.802 120.203 L 619.202 143.203 L 578.002 143.203 L 629.402 2.203 L 674.602 2.203 L 725.802 143.203 L 684.402 143.203 Z M 636.802 90.203 L 667.002 90.203 L 651.802 44.603 L 636.802 90.203 Z" id="4"/><path d="M 871.602 53.203 L 829.402 53.203 A 31.227 31.227 0 0 0 824.712 45.964 A 26.198 26.198 0 0 0 818.902 41.003 A 27.574 27.574 0 0 0 806.759 36.964 A 34.492 34.492 0 0 0 803.402 36.803 A 30.783 30.783 0 0 0 793.259 38.404 A 25.934 25.934 0 0 0 781.702 46.503 A 33.364 33.364 0 0 0 775.045 59.885 Q 773.782 64.855 773.624 70.712 A 62.781 62.781 0 0 0 773.602 72.403 A 53.876 53.876 0 0 0 774.603 83.106 Q 775.93 89.652 779.017 94.742 A 30.659 30.659 0 0 0 781.702 98.503 A 26.344 26.344 0 0 0 800.9 108.118 A 36.079 36.079 0 0 0 803.402 108.203 A 31.274 31.274 0 0 0 812.159 107.018 A 26.589 26.589 0 0 0 818.902 104.003 A 27.117 27.117 0 0 0 827.6 95.121 A 34.171 34.171 0 0 0 829.402 91.803 L 871.602 91.803 Q 866.402 116.003 848.402 130.103 A 65.65 65.65 0 0 1 817.056 143.266 A 87.953 87.953 0 0 1 804.002 144.203 A 80.839 80.839 0 0 1 783.399 141.673 A 67.077 67.077 0 0 1 767.202 135.103 Q 751.202 126.003 742.502 109.703 A 73.721 73.721 0 0 1 734.49 83.844 A 92.675 92.675 0 0 1 733.802 72.403 A 84.969 84.969 0 0 1 736.404 50.999 A 71.146 71.146 0 0 1 742.502 35.303 Q 751.202 19.003 767.202 9.903 A 69.637 69.637 0 0 1 793.902 1.372 A 87.565 87.565 0 0 1 804.002 0.803 A 81.803 81.803 0 0 1 825.494 3.502 A 63.866 63.866 0 0 1 848.402 14.903 A 62.943 62.943 0 0 1 870.514 48.755 A 80.458 80.458 0 0 1 871.602 53.203 Z" id="5"/><path d="M 882.402 2.203 L 996.402 2.203 L 996.402 33.403 L 958.802 33.403 L 958.802 143.203 L 919.602 143.203 L 919.602 33.403 L 882.402 33.403 L 882.402 2.203 Z" id="6"/></g></svg>