<svg xmlns="http://www.w3.org/2000/svg" id="svg-element" viewBox="0 0 996.402 144.607" fill="inherit" preserveAspectRatio="xMidYMin meet"><g xmlns="http://www.w3.org/2000/svg" id="svgGroup" stroke-linecap="round" fill-rule="evenodd" font-size="9pt" stroke="#000000" stroke-width="0" fill="#ff0000" style="stroke:#000000;stroke-width:0;fill:#ff0000"><path d="M137.79 92.84Q116.88 93.71 95.96 94.61C94.76 93.23 93.21 91.97 91.35 90.87 89.69 89.89 87.77 89.07 85.63 88.43 82 87.37 77.89 86.82 73.63 86.84 72.53 86.83 71.42 86.86 70.31 86.92 66.9 87.08 63.5 87.55 60.25 88.32 55.75 89.41 51.75 91.13 48.7 93.28 45.46 95.54 43.15 98.1 41.9 100.77Q40.58 103.46 40.34 106.55C40.32 106.85 40.31 107.14 40.3 107.44 40.23 109.32 40.52 111.17 41.17 112.95Q42.43 116.26 45.47 118.72C46.26 119.36 47.15 119.96 48.13 120.53 52.82 123.33 59.77 124.94 67.24 124.93 68.07 124.94 68.9 124.94 69.74 124.92 72.69 124.86 75.64 124.59 78.48 124.1 80.86 123.69 83.13 123.1 85.23 122.35 88.78 121.07 91.76 119.37 93.95 117.38 94.61 116.78 95.22 116.17 95.76 115.54Q116.78 115 137.79 114.49 132.6 128.15 114.61 136.2C105.49 140.18 94.67 142.72 83.25 143.59 78.93 143.94 74.57 143.88 70.2 143.89 63.25 143.87 56.32 143.67 49.59 142.75 43.94 141.98 38.5 140.85 33.42 139.39Q17.44 135.2 8.74 128.18C4.48 124.89 1.81 120.95 0.94 116.16 0.55 114.13 0.41 112.08 0.49 110.01 0.68 106.1 1.62 102.16 3.53 98.26 5.04 95.24 7.19 92.27 9.93 89.44Q18.88 80.14 34.81 74.25C42.96 71.21 51.93 69.06 61.18 67.94 64.49 67.52 67.81 67.21 71.13 67.02 78.28 66.55 85.4 66.63 92.3 67.25 100.5 68.01 108.18 69.75 114.87 72.38 125.61 76.62 133.29 82.96 136.71 90.38 137.11 91.19 137.48 92.01 137.79 92.84Q137.79 92.84 137.79 92.84" id="0"/><path d="M223.99 143.63Q204.19 143.64 187.56 138.84 170.95 133.48 161.22 124.06C155.51 118.57 152.24 112.38 151.66 105.98 151.56 105.01 151.51 104.03 151.5 103.06 151.43 98.49 152.62 93.89 155.03 89.42 156.53 86.65 158.55 83.95 161.02 81.37Q170.53 71.3 186.84 64.97 203.12 58.49 222.62 57.3C232.07 56.77 241.46 57.19 250.3 58.81 253.19 59.36 255.99 60.03 258.72 60.82Q275.16 65.64 284.99 75.48C290.71 81.27 294.14 87.92 294.99 94.88 295.15 96.08 295.25 97.29 295.29 98.5 295.47 103.45 294.46 108.41 292.27 113.19 290.81 116.33 288.79 119.35 286.25 122.19Q276.84 132.67 260.33 138.57 243.79 143.63 223.99 143.63 223.99 143.63 223.99 143.63M223.76 122.35C227.25 122.32 230.73 121.98 234.08 121.36 239.22 120.38 243.81 118.52 247.31 116 250.9 113.37 253.38 110.24 254.53 106.9Q255.67 103.81 255.66 100.24C255.66 100.08 255.66 99.92 255.66 99.76 255.63 97.56 255.24 95.37 254.48 93.24Q252.39 87.55 246.64 83.9C241.97 80.96 235.65 79.23 228.82 79.05 226.9 78.97 224.97 78.98 223.04 79.08 219.68 79.22 216.33 79.63 213.09 80.29 207.85 81.36 203.14 83.32 199.58 85.92Q191.81 91.48 191.28 100.23C191.24 100.75 191.24 101.27 191.24 101.79Q191.33 109.96 197.46 115.15C198.22 115.8 199.06 116.41 199.96 117 204.38 119.84 210.4 121.66 216.95 122.13 219.2 122.32 221.47 122.39 223.76 122.35Q223.76 122.35 223.76 122.35" id="1"/><path d="M443.44 44.22Q444.01 93.77 444.39 143.43 424.79 143.44 405.19 143.44 378.72 116.91 351.93 91.51 352.57 117.4 352.99 143.46 333.39 143.47 313.79 143.48 312.86 98.25 311.12 53.31 330.49 52.12 350.42 50.73 377.74 75.6 404.65 101.5 404.12 74.27 403.55 47.01 423.49 45.61 443.44 44.22 443.44 44.22 443.44 44.22" id="2"/><path d="M458.3 43.18Q516.32 39.12 574.33 35.06 574.17 47.01 574 58.98 554.95 60.03 535.9 61.08 535.62 102.21 535.4 143.39 515.8 143.4 496.2 143.41 496.2 103.3 496.18 63.27 477.33 64.31 458.48 65.35 458.39 54.27 458.3 43.18 458.3 43.18 458.3 43.18" id="3"/><path d="M684.4 143.34Q680.74 133.87 677.09 124.44 652.07 124.74 627.04 125.05 623.11 134.23 619.2 143.36 598.6 143.37 578 143.38 604.48 88.04 631.73 31.04 654.73 29.43 677.45 27.73 701.26 84.42 725.8 143.32 705.1 143.33 684.4 143.34 684.4 143.34 684.4 143.34M637.47 100.86Q652.6 100.44 667.73 100.01 660.54 81.67 653.41 63.55 645.39 82.28 637.47 100.86 637.47 100.86 637.47 100.86" id="4"/><path d="M872.25 59.37Q851.27 60.46 830.28 61.54C829.1 59.22 827.55 57.09 825.7 55.22 824.04 53.56 822.12 52.16 819.98 51.06 816.35 49.22 812.24 48.22 807.96 48.15 806.86 48.12 805.75 48.15 804.64 48.21 801.21 48.39 797.79 49.08 794.53 50.25 790.01 51.92 786 54.63 782.93 58.08 779.68 61.69 777.35 65.83 776.1 70.2Q774.78 74.63 774.53 79.79C774.5 80.28 774.49 80.77 774.49 81.28 774.4 84.43 774.69 87.58 775.33 90.65Q776.57 96.37 779.58 100.77C780.36 101.91 781.24 102.99 782.21 104.02 786.87 109.02 793.8 111.98 801.26 112.13 802.09 112.16 802.92 112.18 803.76 112.16 806.72 112.12 809.67 111.71 812.51 110.92 814.89 110.27 817.17 109.3 819.28 108.07 822.85 105.96 825.84 103.13 828.05 99.82 828.72 98.82 829.33 97.8 829.88 96.74Q850.92 96.15 871.96 95.55 866.6 118.21 848.51 131.36C839.34 137.82 828.49 141.93 817.05 143.34 812.73 143.91 808.37 143.81 804 143.82 797.05 143.78 790.12 143.46 783.41 141.96 777.76 140.67 772.35 138.77 767.29 136.28Q751.4 128.52 742.92 114.61C738.79 107.78 736.21 100.33 735.3 92.62 734.9 89.38 734.73 86.12 734.81 82.85 734.88 76.68 735.89 70.48 737.78 64.41 739.28 59.66 741.42 55.04 744.14 50.62Q753.08 36.05 769.1 27.03C777.34 22.38 786.38 19.14 795.7 17.51 799.03 16.9 802.37 16.46 805.72 16.2 812.9 15.56 820.06 15.79 826.98 16.89 835.21 18.22 842.89 21.12 849.57 25.43 860.28 32.48 867.89 42.97 871.2 55.27 871.59 56.62 871.94 57.99 872.25 59.37Q872.25 59.37 872.25 59.37" id="5"/><path d="M883.4 11.19Q939.89 6.64 995.65 2.27 995.61 17.82 995.6 33.41 977.69 34.29 959.01 35.38 958.92 89.61 958.8 143.23 939.2 143.24 919.6 143.25 919.84 90.82 920.08 37.83 901.61 39.02 883.14 40.2 883.26 25.63 883.4 11.19 883.4 11.19 883.4 11.19" id="6"/></g></svg>