<?xml version="1.0" encoding="UTF-8" standalone="no"?>
<svg width="55.0333mm" height="52.9167mm"
 xmlns="http://www.w3.org/2000/svg" xmlns:xlink="http://www.w3.org/1999/xlink"  version="1.2" baseProfile="tiny">
<desc>Created by EvoPdf</desc>
<defs>
</defs>
<g fill="none" stroke="black" stroke-width="1" fill-rule="evenodd" stroke-linecap="square" stroke-linejoin="bevel" >

<g fill="#000000" fill-opacity="1" stroke="#000000" stroke-opacity="1" stroke-width="1" stroke-linecap="square" stroke-linejoin="miter" stroke-miterlimit="2" transform="matrix(1,0,0,1,0,0)"
>
</g>

<g fill="#000000" fill-opacity="1" stroke="#000000" stroke-opacity="1" stroke-width="1" stroke-linecap="square" stroke-linejoin="miter" stroke-miterlimit="2" transform="matrix(1,0,0,1,0,0)"
>
</g>

<g fill="#000000" fill-opacity="1" stroke="#000000" stroke-opacity="1" stroke-width="1" stroke-linecap="square" stroke-linejoin="miter" stroke-miterlimit="2" transform="matrix(1,0,0,1,0,0)"
>
</g>

<g fill="#000000" fill-opacity="1" stroke="#000000" stroke-opacity="1" stroke-width="1" stroke-linecap="square" stroke-linejoin="miter" stroke-miterlimit="2" transform="matrix(1,0,0,1,0,0)"
>
</g>

<g fill="#000000" fill-opacity="1" stroke="#000000" stroke-opacity="1" stroke-width="1" stroke-linecap="square" stroke-linejoin="miter" stroke-miterlimit="2" transform="matrix(2.43902,0,0,2.43902,8,71.4146)"
>
</g>

<g fill="#0ae448" fill-opacity="1" stroke="none" transform="matrix(2.43902,0,0,2.43902,8,71.4146)"
>
<path vector-effect="none" fill-rule="nonzero" d="M23.81,14.013 L23.81,14.026 L22.735,18.691 C22.677,18.955 22.413,19.149 22.109,19.149 L20.81,19.149 C20.7141,19.1493 20.6297,19.2122 20.602,19.304 C19.404,23.368 17.782,26.162 15.64,27.839 C13.818,29.267 11.572,29.932 8.571,29.932 C5.875,29.932 4.057,29.065 2.515,27.354 C0.478,25.09 -0.364,21.388 0.146,16.926 C1.065,8.549 5.41,0.096 13.776,0.096 C16.321,0.073 18.319,0.858 19.709,2.426 C21.179,4.083 21.925,6.58 21.929,9.847 C21.9214,10.1449 21.678,10.3826 21.38,10.383 L15.25,10.383 C15.027,10.3762 14.8482,10.1961 14.843,9.973 C14.793,7.714 14.123,6.613 12.791,6.613 C10.441,6.613 9.055,9.803 8.32,11.572 C7.293,14.042 6.77,16.724 6.873,19.396 C6.922,20.64 7.122,22.39 8.303,23.114 C9.35,23.757 10.844,23.331 11.749,22.619 C12.653,21.908 13.381,20.677 13.687,19.554 C13.73,19.398 13.733,19.277 13.692,19.222 C13.649,19.167 13.53,19.154 13.439,19.154 L11.865,19.154 C11.6964,19.1545 11.5361,19.0806 11.427,18.952 C11.3432,18.8515 11.311,18.7176 11.34,18.59 L12.416,13.916 C12.469,13.676 12.686,13.496 12.953,13.463 L12.953,13.452 L23.283,13.452 C23.307,13.452 23.332,13.452 23.355,13.457 C23.623,13.491 23.812,13.741 23.807,14.013 L23.809,14.013 L23.81,14.013"/>
</g>

<g fill="#000000" fill-opacity="1" stroke="#000000" stroke-opacity="1" stroke-width="1" stroke-linecap="square" stroke-linejoin="miter" stroke-miterlimit="2" transform="matrix(2.43902,0,0,2.43902,8,71.4146)"
>
</g>

<g fill="#0ae448" fill-opacity="1" stroke="none" transform="matrix(2.43902,0,0,2.43902,8,71.4146)"
>
<path vector-effect="none" fill-rule="nonzero" d="M41.594,8.65 C41.5848,8.94599 41.3421,9.18114 41.046,9.181 L35.4,9.181 C35.03,9.181 34.721,8.881 34.721,8.516 C34.721,6.868 34.151,6.066 32.985,6.066 C31.819,6.066 31.067,6.783 31.045,8.034 C31.02,9.429 31.809,10.696 34.055,12.874 C37.012,15.648 38.197,18.106 38.14,21.354 C38.047,26.605 34.476,30 29.042,30 C26.267,30 24.147,29.257 22.737,27.793 C21.306,26.307 20.65,24.125 20.787,21.308 C20.7967,21.012 21.0399,20.7773 21.336,20.778 L27.176,20.778 C27.3409,20.7809 27.4958,20.8576 27.598,20.987 C27.6873,21.0936 27.726,21.2337 27.704,21.371 C27.639,22.387 27.816,23.146 28.216,23.566 C28.472,23.838 28.829,23.976 29.274,23.976 C30.353,23.976 30.985,23.213 31.009,21.886 C31.029,20.738 30.666,19.731 28.688,17.696 C26.133,15.2 23.842,12.621 23.913,8.566 C23.955,6.215 24.889,4.064 26.544,2.51 C28.294,0.868 30.687,0 33.465,0 C36.248,0.02 38.357,0.813 39.734,2.359 C41.038,3.825 41.666,5.941 41.596,8.649 L41.594,8.649 L41.594,8.65"/>
</g>

<g fill="#000000" fill-opacity="1" stroke="#000000" stroke-opacity="1" stroke-width="1" stroke-linecap="square" stroke-linejoin="miter" stroke-miterlimit="2" transform="matrix(2.43902,0,0,2.43902,8,71.4146)"
>
</g>

<g fill="#0ae448" fill-opacity="1" stroke="none" transform="matrix(2.43902,0,0,2.43902,8,71.4146)"
>
<path vector-effect="none" fill-rule="nonzero" d="M59.096,29.012 L59.133,1.08 C59.1352,0.938684 59.0802,0.802467 58.9807,0.702154 C58.8811,0.601841 58.7453,0.545907 58.604,0.547 L49.866,0.547 C49.572,0.547 49.443,0.799 49.359,0.967 L36.707,28.842 L36.707,28.847 L36.702,28.853 C36.562,29.196 36.828,29.563 37.199,29.563 L43.307,29.563 C43.637,29.563 43.855,29.463 43.963,29.255 L45.176,26.34 C45.325,25.952 45.353,25.916 45.777,25.916 L51.613,25.916 C52.019,25.916 52.028,25.924 52.021,26.321 L51.89,29.031 C51.8881,29.1721 51.9431,29.3081 52.0427,29.4082 C52.1422,29.5083 52.2778,29.5641 52.419,29.563 L58.589,29.563 C58.7437,29.565 58.8913,29.4984 58.992,29.381 C59.079,29.2791 59.117,29.1443 59.096,29.012 L59.096,29.012 M48.286,19.686 C48.229,19.686 48.184,19.685 48.148,19.681 C48.1048,19.6777 48.0652,19.6553 48.0401,19.62 C48.015,19.5846 48.0069,19.5399 48.018,19.498 C48.03,19.457 48.047,19.403 48.071,19.335 L52.448,8.508 C52.486,8.401 52.534,8.296 52.584,8.194 C52.655,8.049 52.741,8.039 52.768,8.147 C52.791,8.237 52.266,19.265 52.266,19.265 C52.225,19.678 52.206,19.695 51.799,19.729 L48.29,19.688 L48.282,19.688 L48.285,19.686 L48.286,19.686"/>
</g>

<g fill="#000000" fill-opacity="1" stroke="#000000" stroke-opacity="1" stroke-width="1" stroke-linecap="square" stroke-linejoin="miter" stroke-miterlimit="2" transform="matrix(2.43902,0,0,2.43902,8,71.4146)"
>
</g>

<g fill="#0ae448" fill-opacity="1" stroke="none" transform="matrix(2.43902,0,0,2.43902,8,71.4146)"
>
<path vector-effect="none" fill-rule="nonzero" d="M71.545,0.547 L66.906,0.547 C66.661,0.547 66.386,0.677 66.321,0.969 L59.866,28.998 C59.8371,29.1264 59.8696,29.261 59.954,29.362 C60.0629,29.4903 60.2227,29.5642 60.391,29.564 L66.189,29.564 C66.5,29.564 66.714,29.411 66.772,29.146 C66.772,29.146 67.475,25.978 67.476,25.968 C67.526,25.721 67.44,25.529 67.218,25.413 C67.113,25.359 67.009,25.305 66.906,25.25 L65.901,24.728 L64.901,24.206 L64.514,24.005 C64.4501,23.9727 64.4105,23.9066 64.412,23.835 C64.4147,23.7274 64.5024,23.6415 64.61,23.641 L67.788,23.655 C68.738,23.66 69.689,23.593 70.624,23.421 C77.204,22.206 81.574,16.936 81.7,9.765 C81.807,3.645 78.391,0.544002 71.55,0.544002 L71.545,0.547002 L71.545,0.547 M69.966,17.227 L69.842,17.227 C69.564,17.227 69.514,17.197 69.505,17.187 C69.501,17.18 71.338,9.114 71.339,9.103 C71.386,8.87 71.384,8.736 71.24,8.657 C71.056,8.555 68.374,7.141 68.374,7.141 C68.3102,7.10772 68.271,7.04094 68.273,6.969 C68.2757,6.86216 68.3631,6.77696 68.47,6.777 L72.711,6.777 C74.031,6.817 74.767,7.998 74.732,10.014 C74.671,13.506 73.011,17.104 69.966,17.228 L69.966,17.227"/>
</g>

<g fill="#000000" fill-opacity="1" stroke="#000000" stroke-opacity="1" stroke-width="1" stroke-linecap="square" stroke-linejoin="miter" stroke-miterlimit="2" transform="matrix(2.43902,0,0,2.43902,8,71.4146)"
>
</g>

<g fill="#000000" fill-opacity="1" stroke="#000000" stroke-opacity="1" stroke-width="1" stroke-linecap="square" stroke-linejoin="miter" stroke-miterlimit="2" transform="matrix(2.43902,0,0,2.43902,8,71.4146)"
>
</g>

<g fill="#000000" fill-opacity="1" stroke="#000000" stroke-opacity="1" stroke-width="1" stroke-linecap="square" stroke-linejoin="miter" stroke-miterlimit="2" transform="matrix(1,0,0,1,0,0)"
>
</g>

<g fill="#000000" fill-opacity="1" stroke="#000000" stroke-opacity="1" stroke-width="1" stroke-linecap="square" stroke-linejoin="miter" stroke-miterlimit="2" transform="matrix(1,0,0,1,0,0)"
>
</g>

<g fill="#000000" fill-opacity="1" stroke="#000000" stroke-opacity="1" stroke-width="1" stroke-linecap="square" stroke-linejoin="miter" stroke-miterlimit="2" transform="matrix(1,0,0,1,0,0)"
>
</g>

<g fill="#000000" fill-opacity="1" stroke="#000000" stroke-opacity="1" stroke-width="1" stroke-linecap="square" stroke-linejoin="miter" stroke-miterlimit="2" transform="matrix(1,0,0,1,0,0)"
>
</g>

<g fill="#000000" fill-opacity="1" stroke="#000000" stroke-opacity="1" stroke-width="1" stroke-linecap="square" stroke-linejoin="miter" stroke-miterlimit="2" transform="matrix(2.43902,0,0,2.43902,8,71.4146)"
>
</g>

<g fill="#000000" fill-opacity="1" stroke="#000000" stroke-opacity="1" stroke-width="1" stroke-linecap="square" stroke-linejoin="miter" stroke-miterlimit="2" transform="matrix(1,0,0,1,0,0)"
>
</g>

<g fill="#000000" fill-opacity="1" stroke="#000000" stroke-opacity="1" stroke-width="1" stroke-linecap="square" stroke-linejoin="miter" stroke-miterlimit="2" transform="matrix(1,0,0,1,0,0)"
>
</g>

<g fill="#000000" fill-opacity="1" stroke="#000000" stroke-opacity="1" stroke-width="1" stroke-linecap="square" stroke-linejoin="miter" stroke-miterlimit="2" transform="matrix(1,0,0,1,0,0)"
>
</g>

<g fill="#000000" fill-opacity="1" stroke="#000000" stroke-opacity="1" stroke-width="1" stroke-linecap="square" stroke-linejoin="miter" stroke-miterlimit="2" transform="matrix(1,0,0,1,0,0)"
>
</g>

<g fill="#000000" fill-opacity="1" stroke="#000000" stroke-opacity="1" stroke-width="1" stroke-linecap="square" stroke-linejoin="miter" stroke-miterlimit="2" transform="matrix(1,0,0,1,0,0)"
>
</g>

<g fill="#000000" fill-opacity="1" stroke="#000000" stroke-opacity="1" stroke-width="1" stroke-linecap="square" stroke-linejoin="miter" stroke-miterlimit="2" transform="matrix(1,0,0,1,0,0)"
>
</g>
</g>
</svg>
