<?xml version="1.0" encoding="utf-8"?><!-- Uploaded to: SVG Repo, www.svgrepo.com, Generator: SVG Repo Mixer Tools -->
<svg width="800px" height="800px" viewBox="0 0 500 500" id="Layer_2" data-name="Layer 2" xmlns="http://www.w3.org/2000/svg"><defs><style>.cls-1{fill:#2d140a;}.cls-1,.cls-2,.cls-3,.cls-4{fill-rule:evenodd;}.cls-2{fill:#fced8d;}.cls-3{fill:#1fc3f3;}.cls-4{fill:#eaa5ab;}</style></defs><title>icon</title><path class="cls-1" d="M86.76,135.48C201.47,2.9,487.67,42.75,457.49,312.5c-16.36,146.25-130.19,194.29-266.94,170C24.28,453,6.06,236.06,86.76,135.48Z"/><path class="cls-2" d="M99.92,149.89c-71.5,89.16-54.92,284.87,98,312C323.17,484.13,423.67,448,438.76,313,466.71,62.9,204,29.34,99.92,149.89Z"/><path class="cls-1" d="M145.42,232.63a10.85,10.85,0,1,1-21.7.17V232c.11-8.9,4.89-18.33,13.52-25.36,7.81-6.37,19-11,32.67-11.3h1.9c12.71.07,23.23,3.35,31,8.75l0,0c9.15,6.38,14.49,15.56,15.36,26.06a10.89,10.89,0,1,1-21.71,1.7A13.39,13.39,0,0,0,190.4,222l0,0h0c-4.3-3-10.59-4.81-18.67-4.86l-1.31,0c-8.42.2-15,2.82-19.47,6.44-3.54,2.89-5.49,6.11-5.53,8.74Z"/><path class="cls-1" d="M303.52,232.63a10.85,10.85,0,1,1-21.7.17V232c.11-8.9,4.89-18.33,13.52-25.36,7.81-6.37,19-11,32.67-11.3h1.91c12.7.07,23.22,3.35,31,8.75l0,0c9.15,6.38,14.49,15.56,15.36,26.06a10.89,10.89,0,1,1-21.71,1.7A13.39,13.39,0,0,0,348.5,222l0,0h0c-4.3-3-10.59-4.81-18.67-4.86l-1.31,0c-8.42.2-15,2.82-19.47,6.44-3.54,2.89-5.49,6.11-5.53,8.74Z"/><path class="cls-1" d="M325.61,332.41a9.05,9.05,0,0,1,15.18,9.86A82.06,82.06,0,0,1,322,362.67c-18.72,14.49-43.31,21.24-68.13,21.11-24.6-.13-49.6-7-69.41-19.83a94.4,94.4,0,0,1-23.56-21.35,9.05,9.05,0,0,1,14.33-11.06,76.32,76.32,0,0,0,19.09,17.23c16.9,10.93,38.38,16.81,59.62,16.92,21,.11,41.61-5.43,57-17.35A64.11,64.11,0,0,0,325.61,332.41Z"/><path class="cls-3" d="M250,11.5c114.33,0,207,32.81,207,73.28s-92.69,73.27-207,73.27S43,125.25,43,84.78,135.67,11.5,250,11.5Zm0,31.12c-85,0-153.91,16.71-153.91,37.32S165,117.26,250,117.26s153.91-16.71,153.91-37.32S335,42.62,250,42.62Z"/><path class="cls-4" d="M384.33,265c16.94,3.15,27.4,14.16,29.68,23.24,6.23,24.85-76.67,15.1-81.87,11.27C308.51,282.05,354.56,259.46,384.33,265Z"/><path class="cls-1" d="M355.23,263.9a4.5,4.5,0,1,1,8.6,2.67l-8.44,26.94a4.5,4.5,0,1,1-8.6-2.66Z"/><path class="cls-1" d="M382.8,262.11a4.49,4.49,0,0,1,8.21,3.65L377.08,296.9a4.5,4.5,0,0,1-8.22-3.65Z"/><path class="cls-4" d="M146.58,265c16.94,3.15,27.41,14.16,29.68,23.24,6.24,24.85-76.67,15.1-81.86,11.27C70.76,282.05,116.81,259.46,146.58,265Z"/><path class="cls-1" d="M117.48,263.9a4.5,4.5,0,1,1,8.6,2.67l-8.44,26.94a4.5,4.5,0,1,1-8.6-2.66Z"/><path class="cls-1" d="M145.05,262.11a4.49,4.49,0,1,1,8.21,3.65L139.33,296.9a4.5,4.5,0,0,1-8.22-3.65Z"/></svg>