<svg xmlns="http://www.w3.org/2000/svg" id="svg-element" viewBox="0 0 1021.402 144.607" fill="inherit" preserveAspectRatio="xMidYMin meet"><g xmlns="http://www.w3.org/2000/svg" id="svgGroup" stroke-linecap="round" fill-rule="evenodd" font-size="9pt" stroke="#000000" stroke-width="0" fill="#ff0000" style="stroke:#000000;stroke-width:0;fill:#ff0000"><path d="M58.55 97.42Q48.85 97.16 39.16 96.89 39.17 120.26 39.19 143.23 19.59 143.23 0 143.19 0 72.7 0 2.2 29.23 4.49 58.46 6.86 75.4 8.23 87.3 14.8 99.18 21.32 105.19 31.67C108.21 36.94 110.13 42.65 110.82 48.46 111.09 50.64 111.22 52.81 111.23 54.99 111.28 60.53 110.26 65.99 108.21 71.1 107.42 73.06 106.47 74.94 105.38 76.76 102.23 81.91 97.83 86.27 92.52 89.48 90.94 90.46 89.31 91.35 87.62 92.16 83.23 94.22 78.56 95.66 73.72 96.45Q67.61 97.49 60.58 97.46C59.9 97.45 59.22 97.44 58.54 97.42Q58.55 97.42 58.55 97.42M54.71 36.89Q46.92 36.4 39.13 35.92 39.14 50.97 39.15 66.07 46.94 66.42 54.73 66.77C56.87 66.89 59 66.76 61.08 66.38Q71.3 64.35 71.29 52.8C71.32 50.74 71.02 48.68 70.4 46.68Q68.25 40.15 60.94 37.95C58.9 37.35 56.8 37 54.71 36.89Q54.71 36.89 54.71 36.89" id="0"/><path d="M242.39 143.31Q220.49 143.3 198.59 143.29 184.52 120.12 170.45 96.38 168.36 96.32 166.26 96.26 166.33 119.87 166.39 143.28 146.79 143.27 127.19 143.26 127.05 77.82 126.89 12.39 157.71 14.89 188.54 17.37C192.86 17.71 197.18 18.34 201.46 19.27Q208.6 20.84 214.55 23.5C215.48 23.92 216.39 24.36 217.3 24.82 221.27 26.82 224.95 29.3 228.2 32.16 230.91 34.57 233.24 37.27 235.13 40.17Q241.16 49.46 241.22 60.51C241.28 65.07 240.41 69.57 238.65 73.79 237.36 76.77 235.61 79.56 233.42 82.1Q225.58 91.33 210.41 94.89 226.4 119.41 242.39 143.31 242.39 143.31 242.39 143.31M166.1 45.1Q166.14 58.45 166.18 71.83 175.87 72.27 185.56 72.71 193.55 73.07 197.53 69.86 201.2 66.92 201.46 61.23C201.48 60.91 201.49 60.59 201.49 60.27 201.49 58.92 201.31 57.56 200.94 56.24 200.35 54.1 199.11 52.13 197.36 50.53 195.86 49.2 194.08 48.19 192.13 47.55Q190.14 46.86 187.73 46.54C186.97 46.44 186.21 46.37 185.46 46.32Q175.78 45.71 166.1 45.1 166.1 45.1 166.1 45.1" id="1"/><path d="M326.99 143.51Q307.19 143.51 290.56 136.75 273.93 128.83 264.16 114.71C258.42 106.23 255.1 96.69 254.48 86.95 254.38 85.47 254.31 83.99 254.3 82.51 254.22 75.59 255.39 68.76 257.8 62.32 259.3 58.37 261.33 54.62 263.81 51.13Q273.42 37.83 289.93 31.37 306.44 25.09 326.19 26.71C335.75 27.54 345.28 29.56 354.25 32.98 357.17 34.11 360.01 35.37 362.75 36.77Q379.35 45.13 389.06 58.62C394.67 66.43 397.95 74.98 398.65 83.64 398.78 85.14 398.86 86.64 398.87 88.14 398.96 94.25 397.86 100.3 395.59 106.09 394.09 109.9 392.02 113.55 389.45 116.99Q379.92 129.82 363.36 137.07 346.79 143.52 326.99 143.51 326.99 143.51 326.99 143.51M326.84 114.8C330.34 114.89 333.83 114.58 337.19 113.88 342.35 112.79 346.96 110.53 350.49 107.37 354.12 104.1 356.65 100.15 357.84 95.86Q359.01 91.92 359.05 87.26C359.05 87.05 359.06 86.84 359.06 86.64 359.06 83.76 358.7 80.88 357.96 78.04Q355.94 70.42 350.2 65.04C345.52 60.65 339.15 57.62 332.27 56.55 330.34 56.22 328.39 55.99 326.44 55.88 323.04 55.65 319.66 55.79 316.38 56.3 311.08 57.13 306.33 59.27 302.71 62.47Q294.87 69.47 294.31 81.89C294.28 82.62 294.26 83.37 294.28 84.11Q294.35 95.8 300.5 103.55C301.25 104.51 302.09 105.42 303 106.29 307.42 110.5 313.46 113.31 320.02 114.23 322.27 114.57 324.55 114.77 326.84 114.8Q326.84 114.8 326.84 114.8" id="2"/><path d="M470.43 39.02Q490.06 40.44 509.7 41.86 509.87 75.47 510.03 109.1 510.09 122.09 502.72 130.39C501.17 132.16 499.33 133.79 497.24 135.26 491.65 139.18 484.68 141.92 477.07 143.18Q470.08 143.55 461.79 143.55C456.29 143.52 450.82 143.96 445.47 143.08 437.24 141.67 429.64 138.61 423.43 134.2Q409.79 124.28 409.02 106.19C408.99 105.55 408.97 104.91 408.96 104.28Q428.38 104.79 447.79 105.3 448.06 117.8 460.06 118.02C461.69 118.07 463.32 117.88 464.84 117.45Q470.05 115.89 470.71 110.03C470.78 109.4 470.82 108.76 470.81 108.13Q470.62 73.55 470.43 39.02 470.43 39.02 470.43 39.02" id="3"/><path d="M623.56 70.88Q598.03 69.44 572.5 68 572.52 75.9 572.55 83.81 595.07 84.82 617.59 85.83 617.62 95.72 617.65 105.62 595.14 104.96 572.63 104.3 572.66 113.04 572.69 121.79 598.2 122.2 623.7 122.61 623.74 133.03 623.78 143.46 578.69 143.44 533.59 143.43 533.37 93.45 533.15 43.55 578.33 46.81 623.51 50.08 623.54 60.49 623.56 70.88 623.56 70.88 623.56 70.88" id="4"/><path d="M775.87 90.92Q754.81 89.95 733.75 88.97C732.52 87.33 730.94 85.77 729.05 84.36 727.36 83.1 725.4 81.98 723.24 81.04 719.57 79.45 715.42 78.37 711.11 77.91 710.01 77.78 708.89 77.69 707.76 77.63 704.33 77.41 700.9 77.56 697.64 78.07 693.13 78.81 689.12 80.35 686.11 82.54 682.9 84.84 680.64 87.61 679.46 90.66Q678.21 93.75 678.06 97.45C678.04 97.81 678.04 98.16 678.04 98.52 678.02 100.79 678.36 103.08 679.06 105.33Q680.39 109.51 683.49 112.8C684.29 113.65 685.19 114.46 686.18 115.23 690.94 118.97 697.92 121.29 705.39 121.63 706.23 121.68 707.06 121.72 707.9 121.73 710.86 121.8 713.8 121.6 716.64 121.16 719.02 120.78 721.29 120.2 723.38 119.44 726.92 118.14 729.89 116.36 732.05 114.23 732.71 113.59 733.31 112.94 733.85 112.27Q754.93 112.82 776.01 113.37 770.9 127.43 752.95 135.63C743.85 139.84 733.06 142.59 721.64 143.54 717.32 143.93 712.95 143.86 708.58 143.87 701.64 143.84 694.71 143.61 687.98 142.52 682.31 141.57 676.86 140.15 671.77 138.28Q655.75 132.32 647.01 121.62C642.74 116.29 640.01 110.51 638.94 104.57 638.47 102.07 638.24 99.57 638.23 97.07 638.18 92.35 639.04 87.69 640.81 83.2 642.21 79.72 644.25 76.39 646.9 73.31Q655.6 63.27 671.62 58.48C679.84 56.1 688.91 54.91 698.26 54.96 701.6 54.96 704.95 55.09 708.32 55.34 715.54 55.84 722.74 56.93 729.73 58.57 738.03 60.51 745.81 63.4 752.6 67.04 763.48 72.82 771.28 80.27 774.77 88.28 775.17 89.16 775.54 90.04 775.87 90.92Q775.87 90.92 775.87 90.92" id="5"/><path d="M786.42 61.89Q843.2 66.02 899.99 70.15 900.15 78.35 900.31 86.46 881.54 85.4 862.78 84.34 863.14 113.72 863.39 143.55 843.79 143.55 824.19 143.54 823.96 112.66 823.67 82.12 805.12 81.06 786.57 80.01 786.5 70.97 786.42 61.89 786.42 61.89 786.42 61.89" id="6"/><path d="M911.22 120.67Q932.15 121.08 953.12 121.48C953.22 122.15 953.43 122.83 953.76 123.49Q954.31 124.58 955.25 125.43C955.84 125.98 956.63 126.48 957.55 126.9 959.41 127.75 961.71 128.32 964.16 128.55 965.23 128.65 966.3 128.71 967.38 128.72 968.71 128.75 970.02 128.7 971.32 128.58 973.13 128.41 974.84 128.05 976.32 127.53 978.35 126.81 979.62 125.7 979.8 124.46 979.83 124.29 979.85 124.11 979.86 123.94 979.93 122.42 978.58 120.94 976.15 119.92 975.49 119.63 974.77 119.37 974.03 119.14 972.77 118.77 971.48 118.42 970.16 118.1Q966.27 117.14 960.59 116.05C958.76 115.69 956.93 115.35 955.09 115.02 952.08 114.46 949.11 113.87 946.15 113.26Q938.24 111.59 932.64 110.03C927.77 108.65 923.43 106.8 919.85 104.61 919.1 104.16 918.39 103.69 917.71 103.22 915.26 101.49 913.49 99.55 912.53 97.51Q911.44 95.32 911.24 92.79C911.21 92.51 911.2 92.23 911.19 91.95 911.13 89.93 911.58 87.93 912.53 86.02 913.58 83.97 915.34 82.09 917.73 80.46 921.56 77.88 926.71 75.94 932.7 74.81 933.88 74.59 935.07 74.39 936.29 74.21Q948.18 72.54 963.32 73.65C968.69 74.06 974.05 74.66 979.35 75.53Q988.78 77.07 996.34 79.5C998.61 80.19 1000.8 80.95 1002.88 81.75 1011.69 84.82 1017.85 88.72 1019.85 92.91 1020.25 93.65 1020.57 94.4 1020.77 95.16Q998.47 95.63 976.7 95.23C976.63 94.64 976.44 94.04 976.12 93.46Q975.49 92.35 974.2 91.49C973.72 91.17 973.17 90.87 972.55 90.6 970.73 89.81 968.53 89.24 966.2 88.94 965.12 88.8 964.02 88.7 962.92 88.65 961.8 88.59 960.68 88.6 959.6 88.69 958.15 88.81 956.83 89.1 955.74 89.54 954.54 90.03 953.71 90.7 953.36 91.47Q953.04 92.1 953.05 92.88C953.05 92.92 953.04 92.95 953.05 92.98 953.07 94.19 954.13 95.4 955.97 96.3 956.06 96.35 956.16 96.4 956.27 96.45Q959.43 97.96 964.1 99.13 968.77 100.28 977.93 102.05C981.15 102.63 984.35 103.23 987.52 103.86Q992.08 104.75 995.93 105.62C997.49 105.97 999.04 106.35 1000.58 106.73Q1009.49 109.05 1015.81 113.28C1018.59 115.23 1020.44 117.48 1021.2 119.86 1021.37 121.25 1021.07 122.56 1021.05 123.82 1020.96 126.25 1020.85 128.67 1018.94 130.88 1017.96 132.01 1016.72 133.09 1015.26 134.1 1011.81 136.49 1007.23 138.53 1001.84 140.07 1000.25 140.55 998.59 141 996.89 141.4Q984.99 143.7 968.79 143.69C962.84 143.67 956.9 143.97 951.07 143.4Q938.07 141.94 928.36 138.18C919.19 134.63 913.19 129.27 911.78 123.43 911.51 122.51 911.32 121.59 911.21 120.67Q911.22 120.67 911.22 120.67" id="7"/></g></svg>