<svg width="1021.402" height="144.607" viewBox="0 0 1021.402 144.607" xmlns="http://www.w3.org/2000/svg"><g id="svgGroup" stroke-linecap="round" fill-rule="evenodd" font-size="9pt" stroke="#000000" stroke-width="0" fill="#ff0000" style="stroke:#000000;stroke-width:0;fill:#ff0000"><path d="M 58.6 95.603 L 39.2 95.603 L 39.2 143.203 L 0 143.203 L 0 2.203 L 58.6 2.203 Q 75.6 2.203 87.5 8.203 Q 99.4 14.203 105.4 24.803 A 46.241 46.241 0 0 1 111.001 42.3 A 58.287 58.287 0 0 1 111.4 49.203 A 48 48 0 0 1 108.352 66.415 A 45.28 45.28 0 0 1 105.5 72.503 A 40.922 40.922 0 0 1 92.619 86.346 A 51.478 51.478 0 0 1 87.7 89.303 A 51.72 51.72 0 0 1 73.79 94.173 Q 67.671 95.424 60.63 95.581 A 91.372 91.372 0 0 1 58.6 95.603 Z M 54.8 33.803 L 39.2 33.803 L 39.2 64.403 L 54.8 64.403 A 26.278 26.278 0 0 0 61.167 63.702 Q 71.4 61.138 71.4 49.203 A 20.442 20.442 0 0 0 70.518 42.923 Q 68.379 36.297 61.051 34.485 A 26.121 26.121 0 0 0 54.8 33.803 Z" id="0"/><path d="M 242.4 143.203 L 198.6 143.203 L 170.6 91.203 L 166.4 91.203 L 166.4 143.203 L 127.2 143.203 L 127.2 2.203 L 189 2.203 A 81.558 81.558 0 0 1 201.954 3.177 Q 209.102 4.328 215.051 6.838 A 47.073 47.073 0 0 1 217.8 8.103 A 45.119 45.119 0 0 1 228.701 15.614 A 38.689 38.689 0 0 1 235.6 24.303 Q 241.6 34.603 241.6 47.403 A 44.373 44.373 0 0 1 238.96 62.884 A 40.649 40.649 0 0 1 233.7 72.703 Q 225.8 83.603 210.6 88.203 L 242.4 143.203 Z M 166.4 35.003 L 166.4 64.403 L 185.8 64.403 Q 193.8 64.403 197.8 60.603 Q 201.495 57.093 201.777 50.683 A 24.561 24.561 0 0 0 201.8 49.603 A 18.176 18.176 0 0 0 201.27 45.09 A 12.687 12.687 0 0 0 197.7 38.903 A 13.152 13.152 0 0 0 192.488 35.918 Q 190.488 35.289 188.077 35.093 A 28.026 28.026 0 0 0 185.8 35.003 L 166.4 35.003 Z" id="1"/><path d="M 327 144.603 Q 307.2 144.603 290.6 135.303 Q 274 126.003 264.3 109.503 A 70.858 70.858 0 0 1 254.754 77.376 A 85.895 85.895 0 0 1 254.6 72.203 A 76.373 76.373 0 0 1 258.202 48.45 A 68.362 68.362 0 0 1 264.3 34.903 Q 274 18.403 290.6 9.203 Q 307.2 0.003 327 0.003 A 75.252 75.252 0 0 1 355.031 5.178 A 71.762 71.762 0 0 1 363.5 9.203 Q 380 18.403 389.6 34.903 A 71.255 71.255 0 0 1 399.01 66.438 A 86.42 86.42 0 0 1 399.2 72.203 A 77.341 77.341 0 0 1 395.816 95.387 A 68.734 68.734 0 0 1 389.6 109.503 Q 380 126.003 363.4 135.303 Q 346.8 144.603 327 144.603 Z M 327 108.203 A 37.003 37.003 0 0 0 337.364 106.825 A 27.902 27.902 0 0 0 350.7 98.403 A 33.306 33.306 0 0 0 358.125 83.792 Q 359.32 78.813 359.395 72.984 A 60.943 60.943 0 0 0 359.4 72.203 A 52.539 52.539 0 0 0 358.372 61.492 Q 356.409 52.069 350.7 45.703 A 28.651 28.651 0 0 0 332.835 36.404 A 41.027 41.027 0 0 0 327 36.003 A 38.328 38.328 0 0 0 316.927 37.256 A 27.606 27.606 0 0 0 303.2 45.703 Q 295.293 54.622 294.656 69.542 A 62.386 62.386 0 0 0 294.6 72.203 Q 294.6 86.196 300.711 95.287 A 30.457 30.457 0 0 0 303.2 98.503 A 28.196 28.196 0 0 0 320.184 107.662 A 41.109 41.109 0 0 0 327 108.203 Z" id="2"/><path d="M 471 2.203 L 510.2 2.203 L 510.2 95.603 Q 510.2 113.632 502.798 125.234 A 37.998 37.998 0 0 1 497.3 132.003 A 42.717 42.717 0 0 1 477.089 142.905 Q 470.098 144.603 461.8 144.603 A 69.641 69.641 0 0 1 445.483 142.797 A 47.892 47.892 0 0 1 423.5 131.203 Q 409.909 118.468 409.235 95.074 A 85.787 85.787 0 0 1 409.2 92.603 L 448 92.603 Q 448.2 109.203 460.2 109.203 A 12.082 12.082 0 0 0 464.988 108.327 Q 470.2 106.093 470.894 98.17 A 29.471 29.471 0 0 0 471 95.603 L 471 2.203 Z" id="3"/><path d="M 623.8 33.603 L 572.8 33.603 L 572.8 56.603 L 617.8 56.603 L 617.8 86.403 L 572.8 86.403 L 572.8 111.803 L 623.8 111.803 L 623.8 143.203 L 533.6 143.203 L 533.6 2.203 L 623.8 2.203 L 623.8 33.603 Z" id="4"/><path d="M 776.2 53.203 L 734 53.203 A 31.227 31.227 0 0 0 729.31 45.964 A 26.198 26.198 0 0 0 723.5 41.003 A 27.574 27.574 0 0 0 711.357 36.964 A 34.492 34.492 0 0 0 708 36.803 A 30.783 30.783 0 0 0 697.858 38.404 A 25.934 25.934 0 0 0 686.3 46.503 A 33.364 33.364 0 0 0 679.643 59.885 Q 678.38 64.855 678.223 70.712 A 62.781 62.781 0 0 0 678.2 72.403 A 53.876 53.876 0 0 0 679.201 83.106 Q 680.528 89.652 683.615 94.742 A 30.659 30.659 0 0 0 686.3 98.503 A 26.344 26.344 0 0 0 705.498 108.118 A 36.079 36.079 0 0 0 708 108.203 A 31.274 31.274 0 0 0 716.757 107.018 A 26.589 26.589 0 0 0 723.5 104.003 A 27.117 27.117 0 0 0 732.199 95.121 A 34.171 34.171 0 0 0 734 91.803 L 776.2 91.803 Q 771 116.003 753 130.103 A 65.65 65.65 0 0 1 721.654 143.266 A 87.953 87.953 0 0 1 708.6 144.203 A 80.839 80.839 0 0 1 687.997 141.673 A 67.077 67.077 0 0 1 671.8 135.103 Q 655.8 126.003 647.1 109.703 A 73.721 73.721 0 0 1 639.088 83.844 A 92.675 92.675 0 0 1 638.4 72.403 A 84.969 84.969 0 0 1 641.002 50.999 A 71.146 71.146 0 0 1 647.1 35.303 Q 655.8 19.003 671.8 9.903 A 69.637 69.637 0 0 1 698.5 1.372 A 87.565 87.565 0 0 1 708.6 0.803 A 81.803 81.803 0 0 1 730.092 3.502 A 63.866 63.866 0 0 1 753 14.903 A 62.943 62.943 0 0 1 775.113 48.755 A 80.458 80.458 0 0 1 776.2 53.203 Z" id="5"/><path d="M 787 2.203 L 901 2.203 L 901 33.403 L 863.4 33.403 L 863.4 143.203 L 824.2 143.203 L 824.2 33.403 L 787 33.403 L 787 2.203 Z" id="6"/><path d="M 911.4 99.403 L 953.2 99.403 A 25.097 25.097 0 0 0 953.838 103.445 Q 954.381 105.62 955.316 107.305 A 11.028 11.028 0 0 0 957.6 110.203 A 13.116 13.116 0 0 0 964.199 113.334 A 18.284 18.284 0 0 0 967.4 113.603 A 17.772 17.772 0 0 0 971.329 113.191 A 12.564 12.564 0 0 0 976.3 110.903 A 8.724 8.724 0 0 0 979.752 104.499 A 12.218 12.218 0 0 0 979.8 103.403 A 10.199 10.199 0 0 0 976.117 95.3 A 14.476 14.476 0 0 0 974 93.803 A 45.243 45.243 0 0 0 970.168 91.828 Q 966.301 90.036 960.677 88.05 A 214.479 214.479 0 0 0 955.2 86.203 A 252.077 252.077 0 0 1 946.339 83.076 Q 938.478 80.125 932.9 77.303 A 41.74 41.74 0 0 1 920.226 67.319 A 49.913 49.913 0 0 1 918.1 64.703 A 29.573 29.573 0 0 1 913.027 53.839 Q 911.973 49.61 911.824 44.647 A 55.026 55.026 0 0 1 911.8 43.003 A 45.425 45.425 0 0 1 913.269 31.202 A 36.189 36.189 0 0 1 918.6 19.703 A 41.006 41.006 0 0 1 933.777 6.681 A 50.63 50.63 0 0 1 937.4 5.003 Q 949.4 0.003 964.6 0.003 A 85.538 85.538 0 0 1 980.673 1.425 Q 990.088 3.227 997.536 7.315 A 47.042 47.042 0 0 1 1003.9 11.503 A 40.022 40.022 0 0 1 1019.048 38.137 A 56.393 56.393 0 0 1 1019.6 43.803 L 977 43.803 A 18.186 18.186 0 0 0 976.513 40.032 Q 975.938 37.691 974.699 35.958 A 9.99 9.99 0 0 0 973.1 34.203 A 12.902 12.902 0 0 0 966.859 31.285 A 18.041 18.041 0 0 0 963.6 31.003 A 12.175 12.175 0 0 0 960.289 31.432 A 9.359 9.359 0 0 0 956.4 33.603 A 8.43 8.43 0 0 0 953.962 37.837 Q 953.623 39.188 953.601 40.789 A 16.208 16.208 0 0 0 953.6 41.003 A 9.06 9.06 0 0 0 956.416 47.629 A 12.037 12.037 0 0 0 956.7 47.903 Q 959.8 50.803 964.4 52.903 Q 969 55.003 978 58.203 A 233.423 233.423 0 0 1 987.389 61.639 Q 991.821 63.377 995.572 65.1 A 108.124 108.124 0 0 1 1000.1 67.303 Q 1008.8 71.803 1015.1 79.903 A 29.249 29.249 0 0 1 1020.639 92.301 A 41.115 41.115 0 0 1 1021.4 100.403 A 43.093 43.093 0 0 1 1018.687 115.821 A 40.217 40.217 0 0 1 1015.1 123.003 A 41.521 41.521 0 0 1 1001.838 136.065 A 52.18 52.18 0 0 1 996.9 138.803 Q 985 144.603 968.8 144.603 A 84.803 84.803 0 0 1 951.089 142.854 Q 938.09 140.079 928.4 132.903 A 41.043 41.043 0 0 1 911.934 104.736 A 58.268 58.268 0 0 1 911.4 99.403 Z" id="7"/></g></svg>